<?xml version="1.0" ?>
<!-- Uploaded to: SVG Repo, www.svgrepo.com, Generator: SVG Repo Mixer Tools -->
<svg width="800px" height="800px" viewBox="0 0 120 120" id="Layer_1" version="1.1" xml:space="preserve" xmlns="http://www.w3.org/2000/svg" xmlns:xlink="http://www.w3.org/1999/xlink">
<style type="text/css">
	.st0{fill:#FFC86F;}
	.st1{fill:#56A7FF;}
	.st2{fill:#84C2FF;}
	.st3{fill:#FFFFFF;}
	.st4{fill:#FFC856;}
</style>
<g>
<path class="st0" d="M81.1,62.4l-4.6,0.6c-0.4,0.1-0.8-0.3-0.8-0.7v-4.4c0-0.4,0.4-0.8,0.8-0.7l4.6,0.6c0.4,0,0.6,0.3,0.6,0.7v3.3   C81.7,62,81.4,62.3,81.1,62.4z"/>
<g>
<path class="st0" d="M47.5,43h22c2.2,0,3.8-1.9,3.6-4l-2.8-22.9c-0.2-1.8-1.7-3.2-3.6-3.2H50.2c-1.8,0-3.3,1.4-3.6,3.2L43.9,39    C43.7,41.2,45.3,43,47.5,43z"/>
<path class="st0" d="M69.5,77h-22c-2.2,0-3.8,1.9-3.6,4l2.8,22.9c0.2,1.8,1.7,3.2,3.6,3.2h16.5c1.8,0,3.3-1.4,3.6-3.2L73.1,81    C73.3,78.8,71.7,77,69.5,77z"/>
</g>
<path class="st1" d="M71.8,80.2H45.2c-3.8,0-6.8-3.1-6.8-6.8V46.7c0-3.8,3.1-6.8,6.8-6.8h26.7c3.8,0,6.8,3.1,6.8,6.8v26.7   C78.7,77.1,75.6,80.2,71.8,80.2z"/>
<path class="st2" d="M70.9,77.4H46.1c-2.8,0-5.1-2.3-5.1-5.1V47.6c0-2.8,2.3-5.1,5.1-5.1h24.7c2.8,0,5.1,2.3,5.1,5.1v24.7   C75.9,75.2,73.7,77.4,70.9,77.4z"/>
<g>
<path class="st3" d="M51.7,68.4c-0.7,0-1.4-0.3-1.9-0.9c-0.9-1-0.8-2.6,0.2-3.5l5.9-5.2V48.6c0-1.4,1.1-2.5,2.5-2.5    s2.5,1.1,2.5,2.5V60c0,0.7-0.3,1.4-0.9,1.9l-6.8,5.9C52.9,68.2,52.3,68.4,51.7,68.4z"/>
</g>
<circle class="st4" cx="58.5" cy="60" r="4.2"/>
</g>
</svg>